<svg viewBox="0 0 320 300" xmlns="http://www.w3.org/2000/svg">
  <g fill="#C79553">
    <path d="M 160 20
             C 150 90, 140 128, 136 165
             C 133 197, 143 229, 152 257
             L 160 274
             L 168 257
             C 177 229, 187 197, 184 165
             C 180 128, 170 90, 160 20 Z"/>
    <path d="M 52 30
             C 76 96, 98 144, 112 179
             C 121 204, 138 235, 151 260
             L 160 274
             L 156 246
             C 145 216, 121 176, 103 139
             C 85 105, 66 63, 52 30 Z"/>
    <path d="M 268 30
             C 244 96, 222 144, 208 179
             C 199 204, 182 235, 169 260
             L 160 274
             L 164 246
             C 175 216, 199 176, 217 139
             C 235 105, 254 63, 268 30 Z"/>
  </g>
</svg>
